<svg xmlns="http://www.w3.org/2000/svg"  viewBox="0 0 48 48" width="48px" height="48px"><linearGradient id="SVGID_1_" x1="38.513" x2="9.487" y1="9.487" y2="38.513" gradientUnits="userSpaceOnUse"><stop offset="0" stop-color="#60fea4"/><stop offset=".033" stop-color="#6afeaa"/><stop offset=".197" stop-color="#97fec4"/><stop offset=".362" stop-color="#bdffd9"/><stop offset=".525" stop-color="#daffea"/><stop offset=".687" stop-color="#eefff5"/><stop offset=".846" stop-color="#fbfffd"/><stop offset="1" stop-color="#fff"/></linearGradient><path fill="url(#SVGID_1_)" d="M34.477,40H13.523C10.197,40,7.5,37.385,7.5,34.159V13.841C7.5,10.615,10.197,8,13.523,8h20.953	c3.327,0,6.023,2.615,6.023,5.841v20.318C40.5,37.385,37.803,40,34.477,40z"/><path fill="none" stroke="#10e36c" stroke-linecap="round" stroke-linejoin="round" stroke-width="3" d="M40.5,32.745V34.5c0,3.314-2.686,6-6,6h-21c-3.314,0-6-2.686-6-6V21.064"/><path fill="none" stroke="#10e36c" stroke-linecap="round" stroke-linejoin="round" stroke-width="3" d="M7.5,15.447V13.5c0-3.314,2.686-6,6-6h21c3.314,0,6,2.686,6,6v12.287"/><path fill="none" stroke="#10e36c" stroke-linecap="round" stroke-linejoin="round" stroke-miterlimit="10" stroke-width="3" d="M17.888,15.33C14.94,17.016,13,19.887,13,23.145c0,3.481,2.22,6.513,5.511,8.137	c-0.493,1.069-1.448,2.073-2.368,2.972c5.304,0.619,6.962-1.709,7.857-1.709"/><path fill="none" stroke="#10e36c" stroke-linecap="round" stroke-linejoin="round" stroke-miterlimit="10" stroke-width="3" d="M29.639,31.217C32.85,29.576,35,26.575,35,23.146c0-5.19-4.925-9.399-11-9.399	c-0.499,0-0.989,0.028-1.471,0.083"/></svg>